<?xml version="1.0" encoding="UTF-8"?>
<svg width="96px" height="96px" viewBox="0 0 96 96" version="1.1" xmlns="http://www.w3.org/2000/svg" xmlns:xlink="http://www.w3.org/1999/xlink">
    <title>icon-customers</title>
    <defs>
        <rect id="path-1" x="0" y="0" width="96" height="96"></rect>
    </defs>
    <g id="Marketing-Pages" stroke="none" stroke-width="1" fill="none" fill-rule="evenodd">
        <g id="About-2B" transform="translate(-200.000000, -1755.000000)">
            <g id="icon-promos" transform="translate(130.000000, 1755.000000)">
                <g id="icon-customers" transform="translate(70.000000, 0.000000)">
                    <mask id="mask-2" fill="white">
                        <use xlink:href="#path-1"></use>
                    </mask>
                    <g id="Mask"></g>
                    <g id="Group-414" mask="url(#mask-2)" fill="#008296">
                        <g transform="translate(11.999700, 13.999100)">
                            <path d="M16.8636,13.032 C19.8066,13.032 23.4216,11.235 24.4476,9.264 C24.7026,8.775 25.2006,8.469 25.7496,8.457 C26.3226,8.505 26.8056,8.733 27.0816,9.213 C29.0496,12.654 31.0236,13.698 34.3446,13.059 C35.3586,12.813 36.2466,12.543 37.0026,12.288 C35.6676,5.268 30.3576,0 24.0006,0 C18.0006,0 12.9756,4.719 11.3016,11.142 C14.1696,12.981 15.4176,13.032 16.8636,13.032" id="Fill-791"></path>
                            <path d="M43.257,37.3428 C42.798,36.9858 36.843,34.9698 31.5,33.0468 L31.5,28.6668 C35.058,25.7778 37.398,20.8908 37.311,15.3438 C35.646,16.0308 33.381,16.2288 32.649,16.2288 C29.805,16.2288 27.567,15.0318 25.668,12.5238 C23.547,14.5698 20.058,16.0308 16.863,16.0308 C14.94,16.0308 13.29,15.7158 10.779,14.2908 C10.248,20.4048 12.738,25.6368 16.5,28.6578 L16.5,33.0468 L5.67,36.9258 C2.28,38.1438 0,41.4018 0,45.0348 L0,49.5018 C0,50.3298 0.672,51.0018 1.5,51.0018 L36.078,51.0018 C36.498,45.4968 39.201,40.6278 43.257,37.3428" id="Fill-792"></path>
                            <path d="M43.5003,0.000899999999 C40.6503,0.000899999999 38.0343,1.0899 35.8773,2.8989 C37.9773,5.4489 39.4593,8.6679 40.0503,12.2469 C41.8053,11.5389 43.3383,10.4379 43.9473,9.2649 C44.2023,8.7759 44.7003,8.4669 45.2493,8.4549 C45.8223,8.5059 46.3083,8.7339 46.5813,9.2109 C48.5493,12.6549 50.5233,13.6959 53.8443,13.0599 C54.8613,12.8139 55.7463,12.5439 56.5023,12.2889 C55.1703,5.2689 49.8573,0.000899999999 43.5003,0.000899999999" id="Fill-793"></path>
                            <path d="M51.0003,28.668 C54.5583,25.776 56.8983,20.889 56.8113,15.345 C55.1463,16.032 52.8813,16.23 52.1493,16.23 C49.3053,16.23 47.0673,15.033 45.1683,12.522 C43.9203,13.731 42.1833,14.682 40.3233,15.303 C40.4523,20.484 38.7663,25.08 36.0003,28.659 L36.0003,31.473 C42.6573,33.846 44.0613,34.221 45.9843,35.496 C47.5323,34.626 49.2303,34.011 51.0003,33.594 L51.0003,28.668 Z" id="Fill-794"></path>
                            <path d="M63.0003,54.0009 L57.0003,54.0009 L57.0003,60.0009 C57.0003,60.8289 56.3283,61.5009 55.5003,61.5009 C54.6723,61.5009 54.0003,60.8289 54.0003,60.0009 L54.0003,54.0009 L53.9553,54.0009 L48.0003,54.0009 C47.1723,54.0009 46.5003,53.3289 46.5003,52.5009 C46.5003,51.6729 47.1723,51.0009 48.0003,51.0009 L54.0003,51.0009 L54.0003,45.0009 C54.0003,44.1729 54.6723,43.5009 55.5003,43.5009 C56.3283,43.5009 57.0003,44.1729 57.0003,45.0009 L57.0003,51.0009 L63.0003,51.0009 C63.8283,51.0009 64.5003,51.6729 64.5003,52.5009 C64.5003,53.3289 63.8283,54.0009 63.0003,54.0009 M55.5003,36.0009 C46.4013,36.0009 39.0003,43.4049 39.0003,52.5009 C39.0003,61.5999 46.4013,69.0009 55.5003,69.0009 C64.5993,69.0009 72.0003,61.5999 72.0003,52.5009 C72.0003,43.4049 64.5993,36.0009 55.5003,36.0009" id="Fill-795"></path>
                        </g>
                    </g>
                </g>
            </g>
        </g>
    </g>
</svg>