<?xml version="1.0" encoding="UTF-8"?>
<svg width="96px" height="96px" viewBox="0 0 96 96" version="1.1" xmlns="http://www.w3.org/2000/svg" xmlns:xlink="http://www.w3.org/1999/xlink">
    <title>icon-tools</title>
    <defs>
        <rect id="path-1" x="0" y="0" width="96" height="96"></rect>
    </defs>
    <g id="Marketing-Pages" stroke="none" stroke-width="1" fill="none" fill-rule="evenodd">
        <g id="About-2B" transform="translate(-830.000000, -1755.000000)">
            <g id="icon-promos" transform="translate(130.000000, 1755.000000)">
                <g id="card,-promo-with-icon-copy-2" transform="translate(630.000000, 0.000000)">
                    <g id="icon-tools" transform="translate(70.000000, 0.000000)">
                        <mask id="mask-2" fill="white">
                            <use xlink:href="#path-1"></use>
                        </mask>
                        <g id="Mask"></g>
                        <g id="Group-51" mask="url(#mask-2)" fill="#008296">
                            <g transform="translate(20.000000, 11.997000)">
                                <polygon id="Fill-5082" points="24 12.003 9.003 12.003 9 12.003 9 27.003 24 27.003"></polygon>
                                <path d="M9.003,9.003 L24,9.003 L24,7.5 C24,3.369 20.637,0.003 16.5,0 C12.366,0.003 9,3.372 9,7.503 L9,9.003 L9.003,9.003 Z" id="Fill-5083"></path>
                                <path d="M55.5,30.003 L51.003,30.003 L51,36.003 C51,38.484 48.981,40.503 46.5,40.503 C44.019,40.503 42,38.484 42,36.003 L42.003,30.003 L1.5,30.003 C0.672,30.003 0,30.675 0,31.503 L0,63.003 C0,63.684 0.459,64.281 1.119,64.452 L29.619,71.952 C29.883,72.024 30.165,72.018 30.423,71.94 L55.923,64.44 C56.562,64.254 57,63.669 57,63.003 L57,31.503 C57,30.675 56.328,30.003 55.5,30.003" id="Fill-5084"></path>
                                <polygon id="Fill-5085" points="30.003 27.003 42.009 27.003 42.009 18.003 30.003 18.003"></polygon>
                                <path d="M42.009,3.1596 L42.009,1.5036 C42.009,0.6726 41.337,0.0036 40.509,0.0036 L31.503,0.0036 C30.675,0.0036 30.003,0.6726 30.003,1.5036 L30.003,15.0036 L42.009,15.0036 L42.009,6.2826 C43.752,6.9036 45.009,8.5506 45.009,10.5036 L45,36.0036 C45,36.8316 45.672,37.5036 46.5,37.5036 C47.328,37.5036 48,36.8316 48,36.0036 L48.009,10.5036 C48.009,6.8826 45.429,3.8526 42.009,3.1596" id="Fill-5086"></path>
                            </g>
                        </g>
                    </g>
                </g>
            </g>
        </g>
    </g>
</svg>