<?xml version="1.0" encoding="UTF-8"?>
<svg width="96px" height="96px" viewBox="0 0 96 96" version="1.1" xmlns="http://www.w3.org/2000/svg" xmlns:xlink="http://www.w3.org/1999/xlink">
    <title>icon-sellersupport</title>
    <defs>
        <rect id="path-1" x="0" y="0" width="96" height="96"></rect>
    </defs>
    <g id="Marketing-Pages" stroke="none" stroke-width="1" fill="none" fill-rule="evenodd">
        <g id="About-2B" transform="translate(-1145.000000, -1755.000000)">
            <g id="icon-promos" transform="translate(130.000000, 1755.000000)">
                <g id="card,-promo-with-icon-copy-3" transform="translate(945.000000, 0.000000)">
                    <g id="icon-sellersupport" transform="translate(70.000000, 0.000000)">
                        <mask id="mask-2" fill="white">
                            <use xlink:href="#path-1"></use>
                        </mask>
                        <g id="Mask"></g>
                        <g id="Group-512" mask="url(#mask-2)" fill="#008296">
                            <g transform="translate(11.989500, 14.707800)" id="Fill-284">
                                <path d="M38.382,47.712 C37.851,48.096 37.146,48.096 36.615,47.712 C35.919,47.205 19.5,35.151 19.5,25.611 C19.5,18.969 24.417,15 29.169,15 C32.019,15 35.382,16.476 37.5,20.352 C39.618,16.476 42.975,15 45.828,15 C50.58,15 55.5,18.969 55.5,25.611 C55.5,35.151 39.078,47.205 38.382,47.712 M36,0 C16.149,0 0,13.299 0,29.649 C0,37.371 3.531,44.604 9.975,50.145 L2.745,64.575 C2.106,65.838 3.444,67.209 4.719,66.606 L24.03,57.621 C27.864,58.731 31.887,59.295 36,59.295 C55.848,59.295 72,45.996 72,29.649 C72,13.299 55.848,0 36,0"></path>
                            </g>
                        </g>
                    </g>
                </g>
            </g>
        </g>
    </g>
</svg>