<?xml version="1.0" encoding="UTF-8"?>
<svg width="96px" height="96px" viewBox="0 0 96 96" version="1.1" xmlns="http://www.w3.org/2000/svg" xmlns:xlink="http://www.w3.org/1999/xlink">
    <title>icon-globe</title>
    <defs>
        <rect id="path-1" x="0" y="0" width="96" height="96"></rect>
    </defs>
    <g id="Marketing-Pages" stroke="none" stroke-width="1" fill="none" fill-rule="evenodd">
        <g id="About-2B" transform="translate(-515.000000, -1755.000000)">
            <g id="icon-promos" transform="translate(130.000000, 1755.000000)">
                <g id="card,-promo-with-icon-copy" transform="translate(315.000000, 0.000000)">
                    <g id="icon-globe" transform="translate(70.000000, 0.000000)">
                        <mask id="mask-2" fill="white">
                            <use xlink:href="#path-1"></use>
                        </mask>
                        <g id="Mask"></g>
                        <g id="Group-1420" mask="url(#mask-2)" fill="#008296">
                            <g transform="translate(13.007437, 12.089143)">
                                <path d="M58.1862669,35.5792024 C58.1862669,30.1369118 56.2525238,25.1376361 53.0414754,21.2313455 C52.8959596,21.4674045 52.7116396,21.6678929 52.6146291,21.9459897 C52.6340312,21.9492234 51.5701491,27.5531982 47.2402459,29.7165329 C46.891008,29.8879182 46.4964985,29.9299561 46.1278585,29.8394129 C43.8125406,29.2573497 42.3088775,29.4707729 42.3024101,29.4707729 C42.2862417,29.7294676 43.1884396,32.2808445 43.2822164,32.5557076 C43.5441448,32.4780992 43.8448775,32.3649203 43.9709912,32.3002466 C44.7794122,31.9154382 45.7333491,32.2388066 46.1343259,33.0181245 C47.7349996,36.1742003 48.0357322,38.9454676 47.0397575,41.2672529 C45.9855764,43.7086845 43.7866712,44.8178382 42.8456691,45.1994129 C38.4543259,49.6812992 39.3888606,51.8155308 33.7234459,51.8155308 C31.3757912,51.8155308 29.3644396,46.8065539 29.3644396,45.6294929 C29.3644396,34.2048866 20.2292817,43.1783603 20.2292817,33.7521708 C20.2292817,33.4352697 20.2939554,26.0139645 26.0951848,24.8563055 C28.3102585,24.4132908 31.1526669,24.2451392 32.2779891,26.2112192 C33.1931217,26.1821161 34.0694501,25.6744276 34.295808,25.0147561 C34.5577364,24.2483729 33.8851301,23.1683224 32.4558417,22.0527013 C31.7314964,21.4932739 31.4016606,20.6880866 31.5439427,19.8408613 C31.8608438,17.9750255 35.1042291,15.9863097 41.1803217,13.9426213 C41.2320606,13.9135182 41.3323048,13.8391434 41.4422501,13.7486003 C39.5602459,13.2409118 37.5909322,12.9434129 35.5504775,12.9434129 C23.0716901,12.9434129 12.914688,23.100415 12.914688,35.5792024 C12.914688,48.0579897 23.0716901,58.2149918 35.5504775,58.2149918 C48.0292648,58.2149918 58.1862669,48.0579897 58.1862669,35.5792024" id="Fill-1865"></path>
                                <path d="M18.1377347,53.3961556 C18.0439579,52.5101262 17.2355368,51.8472209 16.3592084,51.9603998 C15.4731789,52.0541767 14.8296758,52.849663 14.9234526,53.7356925 L15.6995368,61.0502862 C7.84815158,54.9450904 3.23368421,45.6708841 3.23368421,35.5785556 C3.23368421,15.0996335 22.1636716,-0.376779105 42.4000674,3.96929247 C43.2860968,4.16654721 44.1300884,3.59741879 44.3208758,2.72755774 C44.5051958,1.854463 43.9490021,0.994303001 43.0759074,0.803515632 C20.7473179,-3.96616858 0,13.1206188 0,35.5785556 C0,45.5641725 4.13911579,54.7995746 11.24352,61.451263 L3.58292211,59.8505893 C2.69689263,59.6662693 1.85290105,60.2289304 1.66858105,61.1020251 C1.48749474,61.9751198 2.04692211,62.8320462 2.92001684,63.0163662 L17.3584168,66.0301598 C18.2703158,66.2274146 19.2792253,65.5354062 19.2792253,64.4327198 C19.2759916,64.3777472 18.1377347,53.3961556 18.1377347,53.3961556" id="Fill-1866"></path>
                                <path d="M52.9945869,17.7625725 C53.0883638,18.6486019 53.8967848,19.3115072 54.7731133,19.1983283 C55.6591427,19.1045514 56.3026459,18.3090651 56.2088691,17.4230356 L55.4327848,10.1084419 C63.2841701,16.2136377 67.8986375,25.4878441 67.8986375,35.5801725 C67.8986375,56.0590946 48.9686501,71.5355072 28.7322543,67.1894356 C27.8462248,66.9921809 27.0022333,67.5613093 26.8114459,68.4311704 C26.6271259,69.3042651 27.1833196,70.1644251 28.0564143,70.3552125 C50.3850038,75.1248967 71.1323217,58.0381093 71.1323217,35.5801725 C71.1323217,25.5945556 66.9932059,16.3591535 59.8888017,9.70746511 L67.5493996,11.3081388 C68.4354291,11.4924588 69.2794206,10.9297977 69.4637406,10.056703 C69.6448269,9.18360826 69.0853996,8.32668195 68.2123048,8.14236195 L53.7739048,5.12856826 C52.8620059,4.93131353 51.8530964,5.62332195 51.8530964,6.72600826 C51.8563301,6.7809809 52.9945869,17.7625725 52.9945869,17.7625725" id="Fill-1867"></path>
                            </g>
                        </g>
                    </g>
                </g>
            </g>
        </g>
    </g>
</svg>